<svg viewBox="0 0 500 300" fill="none" xmlns="http://www.w3.org/2000/svg">
  <path d="M206.11 264.418L145.404 102.105C141.634 92.0128 127.314 92.0128 123.544 102.105L60.0201 271.997H0L93.8766 30.2028C99.5892 15.5405 113.68 5.86719 129.409 5.86719H139.539C155.268 5.86719 169.397 15.5405 175.071 30.2028L268.948 271.959H217.002C212.127 271.959 207.785 268.95 206.072 264.38L206.11 264.418Z" fill="url(#paint0_linear_56_274)"/>
  <path d="M244.954 9.67449L309.125 181.28C311.943 188.859 322.645 188.859 325.501 181.28L391.729 4H451.749L357.453 246.861C352.007 260.875 338.526 270.13 323.482 270.13H311.029C295.986 270.13 282.504 260.914 277.058 246.861L182.801 4H236.766C240.422 4 243.659 6.24695 244.954 9.67449Z" fill="#9ca3af"/>
  <path d="M32 28C32 13.5327 42.8369 4 56 4C69.1631 4 80 13.5327 80 28C80 42.4673 69.1631 52 56 52C42.8369 52 32 41.8505 32 28Z" fill="#111111"/>
  <defs>
    <linearGradient id="paint0_linear_56_274" x1="89.497" y1="4.00019" x2="249.449" y2="293.437" gradientUnits="userSpaceOnUse">
      <stop stopColor="#00B077"/>
      <stop offset="1" stopColor="#008E60"/>
    </linearGradient>
  </defs>
</svg>
