<?xml version="1.0" encoding="UTF-8" standalone="no"?>
<svg
   width="1652"
   height="276"
   viewBox="0 0 1652 276"
   fill="none"
   version="1.1"
   id="svg9"
   sodipodi:docname="logo.svg"
   inkscape:version="1.4.3 (0d15f75, 2025-12-25)"
   xmlns:inkscape="http://www.inkscape.org/namespaces/inkscape"
   xmlns:sodipodi="http://sodipodi.sourceforge.net/DTD/sodipodi-0.dtd"
   xmlns="http://www.w3.org/2000/svg"
   xmlns:svg="http://www.w3.org/2000/svg">
  <sodipodi:namedview
     id="namedview9"
     pagecolor="#ffffff"
     bordercolor="#000000"
     borderopacity="0.25"
     inkscape:showpageshadow="2"
     inkscape:pageopacity="0.0"
     inkscape:pagecheckerboard="0"
     inkscape:deskcolor="#d1d1d1"
     inkscape:zoom="0.26831114"
     inkscape:cx="-286.98026"
     inkscape:cy="-281.38973"
     inkscape:window-width="1920"
     inkscape:window-height="991"
     inkscape:window-x="-9"
     inkscape:window-y="-9"
     inkscape:window-maximized="1"
     inkscape:current-layer="svg9" />
  <path
     d="M206.11 264.418L145.404 102.105C141.634 92.0128 127.314 92.0128 123.544 102.105L60.0201 271.997H0L93.8766 30.2028C99.5892 15.5405 113.68 5.86719 129.409 5.86719H139.539C155.268 5.86719 169.397 15.5405 175.071 30.2028L268.948 271.959H217.002C212.127 271.959 207.785 268.95 206.072 264.38L206.11 264.418Z"
     fill="url(#paint0_linear_56_274)"
     id="path1" />
  <path
     d="M244.954 9.67449L309.125 181.28C311.943 188.859 322.645 188.859 325.501 181.28L391.729 4H451.749L357.453 246.861C352.007 260.875 338.526 270.13 323.482 270.13H311.029C295.986 270.13 282.504 260.914 277.058 246.861L182.801 4H236.766C240.422 4 243.659 6.24695 244.954 9.67449Z"
     fill="#E9E9E9"
     id="path2"
     style="fill:#999999;fill-opacity:1" />
  <path
     d="M32 28C32 13.5327 42.8369 4 56 4C69.1631 4 80 13.5327 80 28C80 42.4673 69.1631 52 56 52C42.8369 52 32 41.8505 32 28Z"
     fill="white"
     id="path3"
     style="fill:#666666" />
  <path
     d="M472.266 3.625H534.735V272.001H472.266V3.625Z"
     fill="white"
     id="path4"
     style="fill:#1a1a1a" />
  <path
     d="M788.688 272L719.399 179.197L649.619 272H579.84L684.999 136.006L584.348 4H654.618L720.869 91.8417L787.12 4H855.332L754.191 134.936L859.84 271.903H788.59L788.688 272Z"
     fill="white"
     id="path5"
     style="fill:#1a1a1a" />
  <path
     d="M1143.84 4L1028.39 272H963.288L847.84 4H913.433L997.111 202.738L1083.33 4H1143.84Z"
     fill="white"
     id="path6"
     style="fill:#1a1a1a" />
  <path
     d="M1335.84 0V59.9454C1330.26 58.9691 1325.77 58.481 1321.17 58.481C1273.24 58.481 1242.92 86.6963 1242.92 141.565V272H1179.84V3.02656H1239.89V42.2742C1258.08 14.0589 1290.85 0 1335.74 0H1335.84Z"
     fill="white"
     id="path7"
     style="fill:#1a1a1a" />
  <path
     d="M1651.84 3.03189V272.479H1591.28V237.661C1569.88 263.383 1538.32 276 1501.23 276C1421.83 276 1363.84 221.524 1363.84 137.707C1363.84 53.8894 1421.83 0 1501.23 0C1535.85 0 1566.33 11.6386 1588.22 35.7959V3.03189H1651.84ZM1589.21 137.707C1589.21 86.2622 1554.59 53.4004 1508.33 53.4004C1462.08 53.4004 1427.95 86.1644 1427.95 137.707C1427.95 189.249 1462.57 222.013 1508.33 222.013C1554.1 222.013 1589.21 189.249 1589.21 137.707Z"
     fill="white"
     id="path8"
     style="fill:#1a1a1a" />
  <defs
     id="defs9">
    <linearGradient
       id="paint0_linear_56_274"
       x1="89.497"
       y1="4.00019"
       x2="249.449"
       y2="293.437"
       gradientUnits="userSpaceOnUse">
      <stop
         stop-color="#00B077"
         id="stop8" />
      <stop
         offset="1"
         stop-color="#008E60"
         id="stop9" />
    </linearGradient>
  </defs>
</svg>
